<svg xmlns="http://www.w3.org/2000/svg" xml:space="preserve" width="512" height="512" style="enable-background:new 0 0 512 512"><path d="M512 256.2C512 114.57 397.43 0 256.2 0 114.58 0 0 114.57 0 256.2 0 397.43 114.58 512 256.2 512 397.43 512 512 397.43 512 256.2z" style="fill-rule:evenodd;clip-rule:evenodd;fill:#4cdbc4"/><path d="M121.74 95.48h268.53v321.05H121.74z" style="fill-rule:evenodd;clip-rule:evenodd;fill:#324a5e"/><path d="M243.07 195.33c3.58 0 6.77 3.19 6.77 7.16v27.45a6.98 6.98 0 0 1-6.77 6.77h-81.16a6.7 6.7 0 0 1-6.76-6.77V202.5c0-3.97 2.78-7.16 6.76-7.16h81.16z" style="fill-rule:evenodd;clip-rule:evenodd;fill:#fd8469"/><path d="M268.93 195.33h27.85c3.58 0 6.76 3.19 6.76 7.16v27.45a6.97 6.97 0 0 1-6.76 6.77h-27.85a6.97 6.97 0 0 1-6.76-6.77V202.5c0-3.97 3.18-7.16 6.76-7.16z" style="fill-rule:evenodd;clip-rule:evenodd;fill:#ffd05b"/><path d="M322.64 195.33h27.45a7.13 7.13 0 0 1 7.16 7.16v27.45c0 3.58-3.18 6.77-7.16 6.77h-27.45a6.97 6.97 0 0 1-6.76-6.77V202.5c0-3.97 3.17-7.16 6.76-7.16z" style="fill-rule:evenodd;clip-rule:evenodd;fill:#fd8469"/><path d="M161.91 247.84h27.46a6.71 6.71 0 0 1 6.76 6.77v27.85a6.7 6.7 0 0 1-6.76 6.76H161.9a6.7 6.7 0 0 1-6.76-6.76V254.6a6.7 6.7 0 0 1 6.76-6.77zm53.71 0h27.45a6.98 6.98 0 0 1 6.77 6.77v27.85a6.97 6.97 0 0 1-6.77 6.76h-27.45c-3.97 0-7.16-3.18-7.16-6.76V254.6c0-3.58 3.19-6.77 7.16-6.77zm53.31 0h27.85a6.97 6.97 0 0 1 6.76 6.77v27.85a6.97 6.97 0 0 1-6.76 6.76h-27.85a6.97 6.97 0 0 1-6.76-6.76V254.6a6.97 6.97 0 0 1 6.76-6.77zm53.71 0h27.45c3.98 0 7.16 3.19 7.16 6.77v27.85c0 3.58-3.18 6.76-7.16 6.76h-27.45a6.97 6.97 0 0 1-6.76-6.76V254.6a6.97 6.97 0 0 1 6.76-6.77zm-160.73 52.52h27.46a6.7 6.7 0 0 1 6.76 6.76v27.85a6.7 6.7 0 0 1-6.76 6.76H161.9a6.7 6.7 0 0 1-6.76-6.76v-27.85a6.7 6.7 0 0 1 6.76-6.76zm53.71 0h27.45a6.97 6.97 0 0 1 6.77 6.76v27.85a6.98 6.98 0 0 1-6.77 6.76h-27.45c-3.97 0-7.16-3.18-7.16-6.76v-27.85c0-3.58 3.19-6.76 7.16-6.76zm53.31 0h27.85a6.96 6.96 0 0 1 6.76 6.76v27.85a6.97 6.97 0 0 1-6.76 6.76h-27.85a6.97 6.97 0 0 1-6.76-6.76v-27.85a6.96 6.96 0 0 1 6.76-6.76zm-107.02 52.51h27.46a6.48 6.48 0 0 1 6.76 6.77v27.44c0 3.99-2.79 6.76-6.76 6.76H161.9c-3.98 0-6.76-2.77-6.76-6.76v-27.44c0-3.99 2.78-6.77 6.76-6.77zm53.71 0h27.45a6.7 6.7 0 0 1 6.77 6.77v27.44a6.7 6.7 0 0 1-6.77 6.76h-27.45c-3.97 0-7.16-2.77-7.16-6.76v-27.44c0-3.99 3.19-6.77 7.16-6.77zm53.31 0h27.85a6.7 6.7 0 0 1 6.76 6.77v27.44a6.7 6.7 0 0 1-6.76 6.76h-27.85a6.7 6.7 0 0 1-6.76-6.76v-27.44a6.7 6.7 0 0 1 6.76-6.77z" style="fill-rule:evenodd;clip-rule:evenodd;fill:#fff"/><path d="M357.25 387.08c0 3.99-3.18 6.76-7.16 6.76h-27.45a6.7 6.7 0 0 1-6.76-6.76v-79.96a6.96 6.96 0 0 1 6.76-6.76h27.45c3.98 0 7.16 3.18 7.16 6.76v79.96z" style="fill-rule:evenodd;clip-rule:evenodd;fill:#f9b54c"/><path d="M140.03 116.96h231.93v51.32H140.03z" style="fill-rule:evenodd;clip-rule:evenodd;fill:#e6e9ee"/><path d="M348.1 126.9c3.18 0 5.57 1.2 7.56 3.2 1.98 1.58 3.18 4.37 3.18 7.15v7.96c0 2.78-1.2 5.56-3.18 7.56a10.2 10.2 0 0 1-7.56 3.18 10.9 10.9 0 0 1-7.56-3.18c-1.6-2-2.79-4.78-2.79-7.56v-7.96c0-2.78 1.2-5.57 2.79-7.16 1.98-2 4.78-3.19 7.56-3.19zm4.77 5.58a6.6 6.6 0 0 0-4.77-1.99c-1.6 0-3.58.8-4.78 1.99a7.34 7.34 0 0 0-1.99 4.77v7.96c0 1.98.8 3.58 2 4.77a6.6 6.6 0 0 0 4.77 2c1.99 0 3.58-.8 4.77-2s1.99-2.78 1.99-4.77v-7.96c0-1.6-.8-3.58-1.99-4.77z" style="fill-rule:evenodd;clip-rule:evenodd;fill:#324a5e"/></svg>